<?xml version="1.0" encoding="UTF-8" standalone="no"?>
<!DOCTYPE svg PUBLIC "-//W3C//DTD SVG 1.1//EN"
 "http://www.w3.org/Graphics/SVG/1.1/DTD/svg11.dtd">
<!-- Generated by graphviz version 2.28.0 (20111028.1807)
 -->
<!-- Title: G Pages: 1 -->
<!--zoomable-->
<svg id="main" version="1.1" xmlns="http://www.w3.org/2000/svg" xmlns:xlink="http://www.w3.org/1999/xlink" xml:space="preserve" onload="init(evt)">
        <defs>
                <circle id="rim" cx="0" cy="0" r="7"/>
                <circle id="rim2" cx="0" cy="0" r="3.5"/>
                <g id="zoomPlus">
                        <use xlink:href="#rim" fill="#404040">
                                <set attributeName="fill" to="#808080" begin="zoomplus.mouseover" end="zoomplus.mouseout"/>
                        </use>
                        <path d="M-4,0h8M0,-4v8" fill="none" stroke="white" stroke-width="1.5" pointer-events="none"/>
                </g>
                <g id="zoomMin">
                        <use xlink:href="#rim" fill="#404040">
                                <set attributeName="fill" to="#808080" begin="zoomminus.mouseover" end="zoomminus.mouseout"/>
                        </use>
                        <path d="M-4,0h8" fill="none" stroke="white" stroke-width="1.5" pointer-events="none"/>
                </g>
                <g id="dirArrow">
                        <path fill="none" stroke="white" stroke-width="1.5" d="M0,-3.0v7 M-2.5,-0.5L0,-3.0L2.5,-0.5"/>
                </g>
               <g id="resetDef">
                       <use xlink:href="#rim2" fill="#404040">
                               <set attributeName="fill" to="#808080" begin="reset.mouseover" end="reset.mouseout"/>
                       </use>
               </g>
        </defs>

<script type="text/javascript">
var viewWidth = 614;
var viewHeight = 252;
var sectionId = 'dynsection-0';
</script>
<script xlink:href="svgpan.js"/>
<svg id="graph" class="graph">
<g id="viewport">
<title>G</title>
<polygon fill="white" stroke="white" points="-4,5 -4,-248 611.181,-248 611.181,5 -4,5"/>
<!-- Node1 -->
<g id="node1" class="node"><title>Node1</title>
<polygon fill="#bfbfbf" stroke="black" points="251.796,-225.2 251.796,-242.8 356.565,-242.8 356.565,-225.2 251.796,-225.2"/>
<text text-anchor="middle" x="304.181" y="-230.8" font-family="Helvetica,sans-Serif" font-size="8.00">mtcore&#45;ios/MTAppCore.h</text>
</g>
<!-- Node2 -->
<g id="node3" class="node"><title>Node2</title>
<polygon fill="white" stroke="#bfbfbf" points="179.702,-1.2 179.702,-18.8 284.659,-18.8 284.659,-1.2 179.702,-1.2"/>
<text text-anchor="middle" x="232.181" y="-6.8" font-family="Helvetica,sans-Serif" font-size="8.00">Foundation/Foundation.h</text>
</g>
<!-- Node1&#45;&gt;Node2 -->
<g id="edge2" class="edge"><title>Node1&#45;&gt;Node2</title>
<path fill="none" stroke="midnightblue" d="M251.629,-228.633C185.913,-222.372 77.9274,-209.203 44.1807,-188 18.2822,-171.728 13.5149,-161.127 4.18073,-132 -6.85245,-97.5714 4.5685,-78.0998 33.1807,-56 71.8972,-26.0958 126.76,-15.3605 169.078,-11.8148"/>
<polygon fill="midnightblue" stroke="midnightblue" points="169.552,-15.2898 179.274,-11.0777 169.047,-8.30797 169.552,-15.2898"/>
</g>
<!-- Node3 -->
<g id="node5" class="node"><title>Node3</title>
<a xlink:href="_m_t_account_list_8h.html" target="_top" xlink:title="This file contains the definition of the protocol MTAccountList.">
<polygon fill="white" stroke="black" points="52.9053,-169.2 52.9053,-186.8 167.456,-186.8 167.456,-169.2 52.9053,-169.2"/>
<text text-anchor="middle" x="110.181" y="-174.8" font-family="Helvetica,sans-Serif" font-size="8.00">mtcore&#45;ios/MTAccountList.h</text>
</a>
</g>
<!-- Node1&#45;&gt;Node3 -->
<g id="edge4" class="edge"><title>Node1&#45;&gt;Node3</title>
<path fill="none" stroke="midnightblue" d="M275.971,-225.148C242.351,-215.79 186.016,-200.109 148.478,-189.66"/>
<polygon fill="midnightblue" stroke="midnightblue" points="148.996,-186.171 138.424,-186.862 147.119,-192.915 148.996,-186.171"/>
</g>
<!-- Node6 -->
<g id="node15" class="node"><title>Node6</title>
<a xlink:href="_m_t_enterprise_list_8h.html" target="_top" xlink:title="This file contains the definition of the protocol MTEnterpriseList.">
<polygon fill="white" stroke="black" points="176.833,-113.2 176.833,-130.8 299.528,-130.8 299.528,-113.2 176.833,-113.2"/>
<text text-anchor="middle" x="238.181" y="-118.8" font-family="Helvetica,sans-Serif" font-size="8.00">mtcore&#45;ios/MTEnterpriseList.h</text>
</a>
</g>
<!-- Node1&#45;&gt;Node6 -->
<g id="edge18" class="edge"><title>Node1&#45;&gt;Node6</title>
<path fill="none" stroke="midnightblue" d="M299.434,-225.089C288.731,-207.251 262.529,-163.58 248.104,-139.539"/>
<polygon fill="midnightblue" stroke="midnightblue" points="251.031,-137.613 242.884,-130.839 245.028,-141.215 251.031,-137.613"/>
</g>
<!-- Node7 -->
<g id="node19" class="node"><title>Node7</title>
<a xlink:href="_m_t_token_8h.html" target="_top" xlink:title="This file contains the definition of the protocol MTToken.">
<polygon fill="white" stroke="black" points="260.614,-57.2 260.614,-74.8 355.747,-74.8 355.747,-57.2 260.614,-57.2"/>
<text text-anchor="middle" x="308.181" y="-62.8" font-family="Helvetica,sans-Serif" font-size="8.00">mtcore&#45;ios/MTToken.h</text>
</a>
</g>
<!-- Node1&#45;&gt;Node7 -->
<g id="edge24" class="edge"><title>Node1&#45;&gt;Node7</title>
<path fill="none" stroke="midnightblue" d="M304.598,-225.146C305.476,-208.16 307.493,-166.739 308.181,-132 308.492,-116.279 308.464,-98.4139 308.375,-85.3972"/>
<polygon fill="midnightblue" stroke="midnightblue" points="311.871,-84.975 308.283,-75.0064 304.871,-85.037 311.871,-84.975"/>
</g>
<!-- Node8 -->
<g id="node22" class="node"><title>Node8</title>
<a xlink:href="_m_t_deployer_8h.html" target="_top" xlink:title="This file contains the definition of the protocol MTDeployer.">
<polygon fill="white" stroke="black" points="355.499,-113.2 355.499,-130.8 460.862,-130.8 460.862,-113.2 355.499,-113.2"/>
<text text-anchor="middle" x="408.181" y="-118.8" font-family="Helvetica,sans-Serif" font-size="8.00">mtcore&#45;ios/MTDeployer.h</text>
</a>
</g>
<!-- Node1&#45;&gt;Node8 -->
<g id="edge28" class="edge"><title>Node1&#45;&gt;Node8</title>
<path fill="none" stroke="midnightblue" d="M311.66,-225.089C328.825,-206.934 371.29,-162.019 393.738,-138.276"/>
<polygon fill="midnightblue" stroke="midnightblue" points="396.442,-140.51 400.769,-130.839 391.356,-135.701 396.442,-140.51"/>
</g>
<!-- Node10 -->
<g id="node28" class="node"><title>Node10</title>
<a xlink:href="_m_t_serial_activation_8h.html" target="_top" xlink:title="This file contains the definition of the protocol MTSerialActivation.">
<polygon fill="white" stroke="black" points="476.72,-169.2 476.72,-186.8 605.642,-186.8 605.642,-169.2 476.72,-169.2"/>
<text text-anchor="middle" x="541.181" y="-174.8" font-family="Helvetica,sans-Serif" font-size="8.00">mtcore&#45;ios/MTSerialActivation.h</text>
</a>
</g>
<!-- Node1&#45;&gt;Node10 -->
<g id="edge36" class="edge"><title>Node1&#45;&gt;Node10</title>
<path fill="none" stroke="midnightblue" d="M338.643,-225.148C380.417,-215.63 450.898,-199.571 496.726,-189.129"/>
<polygon fill="midnightblue" stroke="midnightblue" points="497.705,-192.496 506.677,-186.862 496.15,-185.671 497.705,-192.496"/>
</g>
<!-- Node3&#45;&gt;Node2 -->
<g id="edge6" class="edge"><title>Node3&#45;&gt;Node2</title>
<path fill="none" stroke="midnightblue" d="M72.601,-169.144C38.982,-160.027 -3.10667,-142.236 10.1807,-112 36.8028,-51.4208 113.649,-27.1652 169.48,-17.4605"/>
<polygon fill="midnightblue" stroke="midnightblue" points="170.333,-20.868 179.644,-15.8123 169.212,-13.9583 170.333,-20.868"/>
</g>
<!-- Node4 -->
<g id="node8" class="node"><title>Node4</title>
<a xlink:href="_m_t_account_8h.html" target="_top" xlink:title="This file contains the definition of the protocol MTAccount.">
<polygon fill="white" stroke="black" points="19.1299,-113.2 19.1299,-130.8 121.232,-130.8 121.232,-113.2 19.1299,-113.2"/>
<text text-anchor="middle" x="70.1807" y="-118.8" font-family="Helvetica,sans-Serif" font-size="8.00">mtcore&#45;ios/MTAccount.h</text>
</a>
</g>
<!-- Node3&#45;&gt;Node4 -->
<g id="edge8" class="edge"><title>Node3&#45;&gt;Node4</title>
<path fill="none" stroke="midnightblue" d="M104.279,-169.032C98.4884,-161.215 89.4908,-149.069 82.1918,-139.215"/>
<polygon fill="midnightblue" stroke="midnightblue" points="84.8719,-136.953 76.1071,-131.001 79.2469,-141.119 84.8719,-136.953"/>
</g>
<!-- Node5 -->
<g id="node11" class="node"><title>Node5</title>
<a xlink:href="_m_t_enterprise_8h.html" target="_top" xlink:title="This file contains the definition of the protocol MTEnterprise.">
<polygon fill="white" stroke="black" points="94.0577,-57.2 94.0577,-74.8 204.304,-74.8 204.304,-57.2 94.0577,-57.2"/>
<text text-anchor="middle" x="149.181" y="-62.8" font-family="Helvetica,sans-Serif" font-size="8.00">mtcore&#45;ios/MTEnterprise.h</text>
</a>
</g>
<!-- Node3&#45;&gt;Node5 -->
<g id="edge16" class="edge"><title>Node3&#45;&gt;Node5</title>
<path fill="none" stroke="midnightblue" d="M114.048,-169.166C118.337,-160.29 125.297,-145.325 130.181,-132 135.933,-116.304 141.157,-97.9919 144.665,-84.8117"/>
<polygon fill="midnightblue" stroke="midnightblue" points="148.056,-85.6762 147.182,-75.1175 141.281,-83.9171 148.056,-85.6762"/>
</g>
<!-- Node4&#45;&gt;Node2 -->
<g id="edge10" class="edge"><title>Node4&#45;&gt;Node2</title>
<path fill="none" stroke="midnightblue" d="M69.6512,-113.049C69.2045,-99.5162 70.3353,-71.927 85.1807,-56 106.75,-32.8593 139.857,-21.5002 169.195,-15.9737"/>
<polygon fill="midnightblue" stroke="midnightblue" points="170.112,-19.3685 179.39,-14.2524 168.947,-12.4661 170.112,-19.3685"/>
</g>
<!-- Node4&#45;&gt;Node5 -->
<g id="edge12" class="edge"><title>Node4&#45;&gt;Node5</title>
<path fill="none" stroke="midnightblue" d="M81.8374,-113.032C94.2776,-104.529 114.215,-90.9009 129.174,-80.6757"/>
<polygon fill="midnightblue" stroke="midnightblue" points="131.452,-83.3576 137.733,-74.825 127.502,-77.5787 131.452,-83.3576"/>
</g>
<!-- Node5&#45;&gt;Node2 -->
<g id="edge14" class="edge"><title>Node5&#45;&gt;Node2</title>
<path fill="none" stroke="midnightblue" d="M161.428,-57.0321C174.621,-48.4485 195.84,-34.6434 211.604,-24.3872"/>
<polygon fill="midnightblue" stroke="midnightblue" points="213.68,-27.2122 220.153,-18.825 209.863,-21.3447 213.68,-27.2122"/>
</g>
<!-- Node6&#45;&gt;Node2 -->
<g id="edge20" class="edge"><title>Node6&#45;&gt;Node2</title>
<path fill="none" stroke="midnightblue" d="M237.749,-113.089C236.794,-95.5681 234.478,-53.1248 233.154,-28.8399"/>
<polygon fill="midnightblue" stroke="midnightblue" points="236.648,-28.6337 232.608,-18.8392 229.658,-29.0151 236.648,-28.6337"/>
</g>
<!-- Node6&#45;&gt;Node5 -->
<g id="edge22" class="edge"><title>Node6&#45;&gt;Node5</title>
<path fill="none" stroke="midnightblue" d="M225.048,-113.032C210.769,-104.368 187.722,-90.3849 170.773,-80.1006"/>
<polygon fill="midnightblue" stroke="midnightblue" points="172.442,-77.02 162.078,-74.825 168.811,-83.0046 172.442,-77.02"/>
</g>
<!-- Node7&#45;&gt;Node2 -->
<g id="edge26" class="edge"><title>Node7&#45;&gt;Node2</title>
<path fill="none" stroke="midnightblue" d="M296.967,-57.0321C284.999,-48.5287 265.819,-34.9009 251.428,-24.6757"/>
<polygon fill="midnightblue" stroke="midnightblue" points="253.373,-21.764 243.194,-18.825 249.318,-27.4703 253.373,-21.764"/>
</g>
<!-- Node8&#45;&gt;Node2 -->
<g id="edge30" class="edge"><title>Node8&#45;&gt;Node2</title>
<path fill="none" stroke="midnightblue" d="M404.826,-112.969C398.727,-99.3147 384.542,-71.5478 364.181,-56 341.841,-38.942 312.618,-28.1009 287.348,-21.3462"/>
<polygon fill="midnightblue" stroke="midnightblue" points="288.072,-17.9191 277.519,-18.8673 286.36,-24.7066 288.072,-17.9191"/>
</g>
<!-- Node9 -->
<g id="node25" class="node"><title>Node9</title>
<a xlink:href="_m_t_deployment_listener_8h.html" target="_top" xlink:title="This file contains the definition of the protocol MTDeploymentListener.">
<polygon fill="white" stroke="black" points="411.933,-57.2 411.933,-74.8 556.429,-74.8 556.429,-57.2 411.933,-57.2"/>
<text text-anchor="middle" x="484.181" y="-62.8" font-family="Helvetica,sans-Serif" font-size="8.00">mtcore&#45;ios/MTDeploymentListener.h</text>
</a>
</g>
<!-- Node8&#45;&gt;Node9 -->
<g id="edge32" class="edge"><title>Node8&#45;&gt;Node9</title>
<path fill="none" stroke="midnightblue" d="M419.395,-113.032C431.363,-104.529 450.542,-90.9009 464.933,-80.6757"/>
<polygon fill="midnightblue" stroke="midnightblue" points="467.043,-83.4703 473.168,-74.825 462.989,-77.764 467.043,-83.4703"/>
</g>
<!-- Node9&#45;&gt;Node2 -->
<g id="edge34" class="edge"><title>Node9&#45;&gt;Node2</title>
<path fill="none" stroke="midnightblue" d="M447.538,-57.1479C402.933,-47.5898 327.547,-31.4357 278.837,-20.9977"/>
<polygon fill="midnightblue" stroke="midnightblue" points="279.379,-17.5346 268.868,-18.8615 277.913,-24.3792 279.379,-17.5346"/>
</g>
<!-- Node10&#45;&gt;Node2 -->
<g id="edge38" class="edge"><title>Node10&#45;&gt;Node2</title>
<path fill="none" stroke="midnightblue" d="M546.688,-169.067C560.657,-147.891 594.353,-89.3801 565.181,-56 530.827,-16.6913 381.748,-10.351 295.148,-10.0942"/>
<polygon fill="midnightblue" stroke="midnightblue" points="294.91,-6.59426 284.909,-10.0913 294.908,-13.5943 294.91,-6.59426"/>
</g>
</g>
</svg>
        <g id="navigator" transform="translate(0 0)" fill="#404254">
                <rect fill="#f2f5e9" fill-opacity="0.5" stroke="#606060" stroke-width=".5" x="0" y="0" width="60" height="60"/>
                <use id="zoomplus" xlink:href="#zoomPlus" x="17" y="9" onmousedown="handleZoom(evt,'in')"/>
                <use id="zoomminus" xlink:href="#zoomMin" x="42" y="9" onmousedown="handleZoom(evt,'out')"/>
                <use id="reset" xlink:href="#resetDef" x="30" y="36" onmousedown="handleReset()"/>
                <g id="arrowUp" xlink:href="#dirArrow" transform="translate(30 24)" onmousedown="handlePan(0,-1)">
                  <use xlink:href="#rim" fill="#404040">
                        <set attributeName="fill" to="#808080" begin="arrowUp.mouseover" end="arrowUp.mouseout"/>
                  </use>
                  <path fill="none" stroke="white" stroke-width="1.5" d="M0,-3.0v7 M-2.5,-0.5L0,-3.0L2.5,-0.5"/>
                </g>
                <g id="arrowRight" xlink:href="#dirArrow" transform="rotate(90) translate(36 -43)" onmousedown="handlePan(1,0)">
                  <use xlink:href="#rim" fill="#404040">
                        <set attributeName="fill" to="#808080" begin="arrowRight.mouseover" end="arrowRight.mouseout"/>
                  </use>
                  <path fill="none" stroke="white" stroke-width="1.5" d="M0,-3.0v7 M-2.5,-0.5L0,-3.0L2.5,-0.5"/>
                </g>
                <g id="arrowDown" xlink:href="#dirArrow" transform="rotate(180) translate(-30 -48)" onmousedown="handlePan(0,1)">
                  <use xlink:href="#rim" fill="#404040">
                        <set attributeName="fill" to="#808080" begin="arrowDown.mouseover" end="arrowDown.mouseout"/>
                  </use>
                  <path fill="none" stroke="white" stroke-width="1.5" d="M0,-3.0v7 M-2.5,-0.5L0,-3.0L2.5,-0.5"/>
                </g>
                <g id="arrowLeft" xlink:href="#dirArrow" transform="rotate(270) translate(-36 17)" onmousedown="handlePan(-1,0)">
                  <use xlink:href="#rim" fill="#404040">
                        <set attributeName="fill" to="#808080" begin="arrowLeft.mouseover" end="arrowLeft.mouseout"/>
                  </use>
                  <path fill="none" stroke="white" stroke-width="1.5" d="M0,-3.0v7 M-2.5,-0.5L0,-3.0L2.5,-0.5"/>
                </g>
        </g>
</svg>
