<?xml version="1.0" encoding="UTF-8" standalone="no"?>
<!DOCTYPE svg PUBLIC "-//W3C//DTD SVG 1.1//EN"
 "http://www.w3.org/Graphics/SVG/1.1/DTD/svg11.dtd">
<!-- Generated by graphviz version 2.28.0 (20111028.1807)
 -->
<!-- Title: G Pages: 1 -->
<svg width="182pt" height="140pt"
 viewBox="0.00 0.00 182.00 140.00" xmlns="http://www.w3.org/2000/svg" xmlns:xlink="http://www.w3.org/1999/xlink">
<g id="graph1" class="graph" transform="scale(1 1) rotate(0) translate(4 136)">
<title>G</title>
<polygon fill="white" stroke="white" points="-4,5 -4,-136 179,-136 179,5 -4,5"/>
<!-- Node1 -->
<g id="node1" class="node"><title>Node1</title>
<polygon fill="#bfbfbf" stroke="black" points="-0.681641,-113.2 -0.681641,-130.8 104.682,-130.8 104.682,-113.2 -0.681641,-113.2"/>
<text text-anchor="middle" x="52" y="-118.8" font-family="Helvetica,sans-Serif" font-size="8.00">mtcore&#45;ios/MTDeployer.h</text>
</g>
<!-- Node2 -->
<g id="node3" class="node"><title>Node2</title>
<polygon fill="white" stroke="#bfbfbf" points="-0.478516,-1.2 -0.478516,-18.8 104.479,-18.8 104.479,-1.2 -0.478516,-1.2"/>
<text text-anchor="middle" x="52" y="-6.8" font-family="Helvetica,sans-Serif" font-size="8.00">Foundation/Foundation.h</text>
</g>
<!-- Node1&#45;&gt;Node2 -->
<g id="edge2" class="edge"><title>Node1&#45;&gt;Node2</title>
<path fill="none" stroke="midnightblue" d="M44.3772,-113.19C36.7668,-104.797 25.5655,-90.6749 21,-76 15.5683,-58.5406 26.4602,-39.8158 36.7975,-26.9697"/>
<polygon fill="midnightblue" stroke="midnightblue" points="39.7231,-28.9402 43.6581,-19.1032 34.4475,-24.3392 39.7231,-28.9402"/>
</g>
<!-- Node3 -->
<g id="node5" class="node"><title>Node3</title>
<a xlink:href="_m_t_deployment_listener_8h.html" target="_top" xlink:title="This file contains the definition of the protocol MTDeploymentListener.">
<polygon fill="white" stroke="black" points="29.752,-57.2 29.752,-74.8 174.248,-74.8 174.248,-57.2 29.752,-57.2"/>
<text text-anchor="middle" x="102" y="-62.8" font-family="Helvetica,sans-Serif" font-size="8.00">mtcore&#45;ios/MTDeploymentListener.h</text>
</a>
</g>
<!-- Node1&#45;&gt;Node3 -->
<g id="edge4" class="edge"><title>Node1&#45;&gt;Node3</title>
<path fill="none" stroke="midnightblue" d="M59.3777,-113.032C66.7631,-105.056 78.3232,-92.5709 87.542,-82.6146"/>
<polygon fill="midnightblue" stroke="midnightblue" points="90.3661,-84.7161 94.5921,-75.0006 85.2298,-79.9603 90.3661,-84.7161"/>
</g>
<!-- Node3&#45;&gt;Node2 -->
<g id="edge6" class="edge"><title>Node3&#45;&gt;Node2</title>
<path fill="none" stroke="midnightblue" d="M94.6223,-57.0321C87.2369,-49.0559 75.6768,-36.5709 66.458,-26.6146"/>
<polygon fill="midnightblue" stroke="midnightblue" points="68.7702,-23.9603 59.4079,-19.0006 63.6339,-28.7161 68.7702,-23.9603"/>
</g>
</g>
</svg>
