<?xml version="1.0" encoding="UTF-8" standalone="no"?>
<!DOCTYPE svg PUBLIC "-//W3C//DTD SVG 1.1//EN"
 "http://www.w3.org/Graphics/SVG/1.1/DTD/svg11.dtd">
<!-- Generated by graphviz version 2.28.0 (20111028.1807)
 -->
<!-- Title: G Pages: 1 -->
<svg width="130pt" height="140pt"
 viewBox="0.00 0.00 130.00 140.00" xmlns="http://www.w3.org/2000/svg" xmlns:xlink="http://www.w3.org/1999/xlink">
<g id="graph1" class="graph" transform="scale(1 1) rotate(0) translate(4 136)">
<title>G</title>
<polygon fill="white" stroke="white" points="-4,5 -4,-136 127,-136 127,5 -4,5"/>
<!-- Node1 -->
<g id="node1" class="node"><title>Node1</title>
<polygon fill="#bfbfbf" stroke="black" points="-0.347656,-113.2 -0.347656,-130.8 122.348,-130.8 122.348,-113.2 -0.347656,-113.2"/>
<text text-anchor="middle" x="61" y="-118.8" font-family="Helvetica,sans-Serif" font-size="8.00">mtcore&#45;ios/MTEnterpriseList.h</text>
</g>
<!-- Node2 -->
<g id="node3" class="node"><title>Node2</title>
<a xlink:href="_m_t_app_core_8h.html" target="_top" xlink:title="This file contains the definition of the protocol MTAppCore.">
<polygon fill="white" stroke="black" points="8.61523,-57.2 8.61523,-74.8 113.385,-74.8 113.385,-57.2 8.61523,-57.2"/>
<text text-anchor="middle" x="61" y="-62.8" font-family="Helvetica,sans-Serif" font-size="8.00">mtcore&#45;ios/MTAppCore.h</text>
</a>
</g>
<!-- Node1&#45;&gt;Node2 -->
<g id="edge2" class="edge"><title>Node1&#45;&gt;Node2</title>
<path fill="none" stroke="midnightblue" d="M61,-102.993C61,-93.5075 61,-82.35 61,-75.0006"/>
<polygon fill="midnightblue" stroke="midnightblue" points="57.5001,-103.032 61,-113.032 64.5001,-103.032 57.5001,-103.032"/>
</g>
<!-- Node3 -->
<g id="node5" class="node"><title>Node3</title>
<a xlink:href="_m_t_core_factory_8h.html" target="_top" xlink:title="This file contains the definition of the class MTCoreFactory.">
<polygon fill="white" stroke="black" points="2.39648,-1.2 2.39648,-18.8 119.604,-18.8 119.604,-1.2 2.39648,-1.2"/>
<text text-anchor="middle" x="61" y="-6.8" font-family="Helvetica,sans-Serif" font-size="8.00">mtcore&#45;ios/MTCoreFactory.h</text>
</a>
</g>
<!-- Node2&#45;&gt;Node3 -->
<g id="edge4" class="edge"><title>Node2&#45;&gt;Node3</title>
<path fill="none" stroke="midnightblue" d="M61,-46.9931C61,-37.5075 61,-26.35 61,-19.0006"/>
<polygon fill="midnightblue" stroke="midnightblue" points="57.5001,-47.0321 61,-57.0321 64.5001,-47.0321 57.5001,-47.0321"/>
</g>
</g>
</svg>
