<?xml version="1.0" encoding="UTF-8" standalone="no"?>
<!DOCTYPE svg PUBLIC "-//W3C//DTD SVG 1.1//EN"
 "http://www.w3.org/Graphics/SVG/1.1/DTD/svg11.dtd">
<!-- Generated by graphviz version 2.28.0 (20111028.1807)
 -->
<!-- Title: G Pages: 1 -->
<svg width="157pt" height="140pt"
 viewBox="0.00 0.00 157.00 140.00" xmlns="http://www.w3.org/2000/svg" xmlns:xlink="http://www.w3.org/1999/xlink">
<g id="graph1" class="graph" transform="scale(1 1) rotate(0) translate(4 136)">
<title>G</title>
<polygon fill="white" stroke="white" points="-4,5 -4,-136 154,-136 154,5 -4,5"/>
<!-- Node1 -->
<g id="node1" class="node"><title>Node1</title>
<polygon fill="#bfbfbf" stroke="black" points="0.949219,-113.2 0.949219,-130.8 103.051,-130.8 103.051,-113.2 0.949219,-113.2"/>
<text text-anchor="middle" x="52" y="-118.8" font-family="Helvetica,sans-Serif" font-size="8.00">mtcore&#45;ios/MTAccount.h</text>
</g>
<!-- Node2 -->
<g id="node3" class="node"><title>Node2</title>
<polygon fill="white" stroke="#bfbfbf" points="-0.478516,-1.2 -0.478516,-18.8 104.479,-18.8 104.479,-1.2 -0.478516,-1.2"/>
<text text-anchor="middle" x="52" y="-6.8" font-family="Helvetica,sans-Serif" font-size="8.00">Foundation/Foundation.h</text>
</g>
<!-- Node1&#45;&gt;Node2 -->
<g id="edge2" class="edge"><title>Node1&#45;&gt;Node2</title>
<path fill="none" stroke="midnightblue" d="M46.7638,-113.125C41.3394,-104.455 33.2147,-89.8947 30,-76 26.1053,-59.1663 33.6846,-40.5441 40.9871,-27.5627"/>
<polygon fill="midnightblue" stroke="midnightblue" points="44.0806,-29.2132 46.3228,-18.8584 38.1126,-25.5548 44.0806,-29.2132"/>
</g>
<!-- Node3 -->
<g id="node5" class="node"><title>Node3</title>
<a xlink:href="_m_t_enterprise_8h.html" target="_top" xlink:title="This file contains the definition of the protocol MTEnterprise.">
<polygon fill="white" stroke="black" points="38.877,-57.2 38.877,-74.8 149.123,-74.8 149.123,-57.2 38.877,-57.2"/>
<text text-anchor="middle" x="94" y="-62.8" font-family="Helvetica,sans-Serif" font-size="8.00">mtcore&#45;ios/MTEnterprise.h</text>
</a>
</g>
<!-- Node1&#45;&gt;Node3 -->
<g id="edge4" class="edge"><title>Node1&#45;&gt;Node3</title>
<path fill="none" stroke="midnightblue" d="M58.1972,-113.032C64.339,-105.136 73.9176,-92.8202 81.6224,-82.9141"/>
<polygon fill="midnightblue" stroke="midnightblue" points="84.4006,-85.0429 87.7773,-75.0006 78.8751,-80.7453 84.4006,-85.0429"/>
</g>
<!-- Node3&#45;&gt;Node2 -->
<g id="edge6" class="edge"><title>Node3&#45;&gt;Node2</title>
<path fill="none" stroke="midnightblue" d="M87.8028,-57.0321C81.661,-49.1356 72.0824,-36.8202 64.3776,-26.9141"/>
<polygon fill="midnightblue" stroke="midnightblue" points="67.1249,-24.7453 58.2227,-19.0006 61.5994,-29.0429 67.1249,-24.7453"/>
</g>
</g>
</svg>
