<?xml version="1.0" encoding="UTF-8" standalone="no"?>
<!DOCTYPE svg PUBLIC "-//W3C//DTD SVG 1.1//EN"
 "http://www.w3.org/Graphics/SVG/1.1/DTD/svg11.dtd">
<!-- Generated by graphviz version 2.28.0 (20111028.1807)
 -->
<!-- Title: G Pages: 1 -->
<svg width="263pt" height="252pt"
 viewBox="0.00 0.00 263.00 252.00" xmlns="http://www.w3.org/2000/svg" xmlns:xlink="http://www.w3.org/1999/xlink">
<g id="graph1" class="graph" transform="scale(1 1) rotate(0) translate(4 248)">
<title>G</title>
<polygon fill="white" stroke="white" points="-4,5 -4,-248 260,-248 260,5 -4,5"/>
<!-- Node1 -->
<g id="node1" class="node"><title>Node1</title>
<polygon fill="#bfbfbf" stroke="black" points="80.877,-225.2 80.877,-242.8 191.123,-242.8 191.123,-225.2 80.877,-225.2"/>
<text text-anchor="middle" x="136" y="-230.8" font-family="Helvetica,sans-Serif" font-size="8.00">mtcore&#45;ios/MTEnterprise.h</text>
</g>
<!-- Node2 -->
<g id="node3" class="node"><title>Node2</title>
<a xlink:href="_m_t_account_8h.html" target="_top" xlink:title="This file contains the definition of the protocol MTAccount.">
<polygon fill="white" stroke="black" points="5.94922,-169.2 5.94922,-186.8 108.051,-186.8 108.051,-169.2 5.94922,-169.2"/>
<text text-anchor="middle" x="57" y="-174.8" font-family="Helvetica,sans-Serif" font-size="8.00">mtcore&#45;ios/MTAccount.h</text>
</a>
</g>
<!-- Node1&#45;&gt;Node2 -->
<g id="edge2" class="edge"><title>Node1&#45;&gt;Node2</title>
<path fill="none" stroke="midnightblue" d="M115.74,-219.152C100.726,-208.888 80.8032,-195.271 68.4477,-186.825"/>
<polygon fill="midnightblue" stroke="midnightblue" points="114.113,-222.278 124.343,-225.032 118.063,-216.5 114.113,-222.278"/>
</g>
<!-- Node3 -->
<g id="node5" class="node"><title>Node3</title>
<a xlink:href="_m_t_account_list_8h.html" target="_top" xlink:title="This file contains the definition of the protocol MTAccountList.">
<polygon fill="white" stroke="black" points="-0.275391,-113.2 -0.275391,-130.8 114.275,-130.8 114.275,-113.2 -0.275391,-113.2"/>
<text text-anchor="middle" x="57" y="-118.8" font-family="Helvetica,sans-Serif" font-size="8.00">mtcore&#45;ios/MTAccountList.h</text>
</a>
</g>
<!-- Node1&#45;&gt;Node3 -->
<g id="edge10" class="edge"><title>Node1&#45;&gt;Node3</title>
<path fill="none" stroke="midnightblue" d="M133.872,-214.93C131.535,-201.087 126.729,-182.044 117,-168 105.581,-151.517 86.1881,-138.58 72.5468,-130.889"/>
<polygon fill="midnightblue" stroke="midnightblue" points="130.445,-215.697 135.308,-225.11 137.377,-214.719 130.445,-215.697"/>
</g>
<!-- Node6 -->
<g id="node12" class="node"><title>Node6</title>
<a xlink:href="_m_t_enterprise_list_8h.html" target="_top" xlink:title="This file contains the definition of the protocol MTEnterpriseList.">
<polygon fill="white" stroke="black" points="132.652,-113.2 132.652,-130.8 255.348,-130.8 255.348,-113.2 132.652,-113.2"/>
<text text-anchor="middle" x="194" y="-118.8" font-family="Helvetica,sans-Serif" font-size="8.00">mtcore&#45;ios/MTEnterpriseList.h</text>
</a>
</g>
<!-- Node1&#45;&gt;Node6 -->
<g id="edge12" class="edge"><title>Node1&#45;&gt;Node6</title>
<path fill="none" stroke="midnightblue" d="M144.942,-216.041C157.68,-191.883 180.539,-148.529 189.867,-130.839"/>
<polygon fill="midnightblue" stroke="midnightblue" points="141.739,-214.611 140.171,-225.089 147.931,-217.876 141.739,-214.611"/>
</g>
<!-- Node2&#45;&gt;Node3 -->
<g id="edge4" class="edge"><title>Node2&#45;&gt;Node3</title>
<path fill="none" stroke="midnightblue" d="M57,-158.993C57,-149.508 57,-138.35 57,-131.001"/>
<polygon fill="midnightblue" stroke="midnightblue" points="53.5001,-159.032 57,-169.032 60.5001,-159.032 53.5001,-159.032"/>
</g>
<!-- Node4 -->
<g id="node7" class="node"><title>Node4</title>
<a xlink:href="_m_t_app_core_8h.html" target="_top" xlink:title="This file contains the definition of the protocol MTAppCore.">
<polygon fill="white" stroke="black" points="72.6152,-57.2 72.6152,-74.8 177.385,-74.8 177.385,-57.2 72.6152,-57.2"/>
<text text-anchor="middle" x="125" y="-62.8" font-family="Helvetica,sans-Serif" font-size="8.00">mtcore&#45;ios/MTAppCore.h</text>
</a>
</g>
<!-- Node3&#45;&gt;Node4 -->
<g id="edge6" class="edge"><title>Node3&#45;&gt;Node4</title>
<path fill="none" stroke="midnightblue" d="M75.124,-106.607C87.8733,-96.4829 104.463,-83.3087 114.925,-75.0006"/>
<polygon fill="midnightblue" stroke="midnightblue" points="72.6882,-104.072 67.0336,-113.032 77.0414,-109.554 72.6882,-104.072"/>
</g>
<!-- Node5 -->
<g id="node9" class="node"><title>Node5</title>
<a xlink:href="_m_t_core_factory_8h.html" target="_top" xlink:title="This file contains the definition of the class MTCoreFactory.">
<polygon fill="white" stroke="black" points="66.3965,-1.2 66.3965,-18.8 183.604,-18.8 183.604,-1.2 66.3965,-1.2"/>
<text text-anchor="middle" x="125" y="-6.8" font-family="Helvetica,sans-Serif" font-size="8.00">mtcore&#45;ios/MTCoreFactory.h</text>
</a>
</g>
<!-- Node4&#45;&gt;Node5 -->
<g id="edge8" class="edge"><title>Node4&#45;&gt;Node5</title>
<path fill="none" stroke="midnightblue" d="M125,-46.9931C125,-37.5075 125,-26.35 125,-19.0006"/>
<polygon fill="midnightblue" stroke="midnightblue" points="121.5,-47.0321 125,-57.0321 128.5,-47.0321 121.5,-47.0321"/>
</g>
<!-- Node6&#45;&gt;Node4 -->
<g id="edge14" class="edge"><title>Node6&#45;&gt;Node4</title>
<path fill="none" stroke="midnightblue" d="M175.609,-106.607C162.673,-96.4829 145.839,-83.3087 135.223,-75.0006"/>
<polygon fill="midnightblue" stroke="midnightblue" points="173.787,-109.625 183.819,-113.032 178.101,-104.113 173.787,-109.625"/>
</g>
</g>
</svg>
