<?xml version="1.0" encoding="UTF-8" standalone="no"?>
<!DOCTYPE svg PUBLIC "-//W3C//DTD SVG 1.1//EN"
 "http://www.w3.org/Graphics/SVG/1.1/DTD/svg11.dtd">
<!-- Generated by graphviz version 2.28.0 (20111028.1807)
 -->
<!-- Title: G Pages: 1 -->
<!--zoomable-->
<svg id="main" version="1.1" xmlns="http://www.w3.org/2000/svg" xmlns:xlink="http://www.w3.org/1999/xlink" xml:space="preserve" onload="init(evt)">
        <defs>
                <circle id="rim" cx="0" cy="0" r="7"/>
                <circle id="rim2" cx="0" cy="0" r="3.5"/>
                <g id="zoomPlus">
                        <use xlink:href="#rim" fill="#404040">
                                <set attributeName="fill" to="#808080" begin="zoomplus.mouseover" end="zoomplus.mouseout"/>
                        </use>
                        <path d="M-4,0h8M0,-4v8" fill="none" stroke="white" stroke-width="1.5" pointer-events="none"/>
                </g>
                <g id="zoomMin">
                        <use xlink:href="#rim" fill="#404040">
                                <set attributeName="fill" to="#808080" begin="zoomminus.mouseover" end="zoomminus.mouseout"/>
                        </use>
                        <path d="M-4,0h8" fill="none" stroke="white" stroke-width="1.5" pointer-events="none"/>
                </g>
                <g id="dirArrow">
                        <path fill="none" stroke="white" stroke-width="1.5" d="M0,-3.0v7 M-2.5,-0.5L0,-3.0L2.5,-0.5"/>
                </g>
               <g id="resetDef">
                       <use xlink:href="#rim2" fill="#404040">
                               <set attributeName="fill" to="#808080" begin="reset.mouseover" end="reset.mouseout"/>
                       </use>
               </g>
        </defs>

<script type="text/javascript">
var viewWidth = 729;
var viewHeight = 308;
var sectionId = 'dynsection-0';
</script>
<script xlink:href="svgpan.js"/>
<svg id="graph" class="graph">
<g id="viewport">
<title>G</title>
<polygon fill="white" stroke="white" points="-4,5 -4,-304 726,-304 726,5 -4,5"/>
<!-- Node1 -->
<g id="node1" class="node"><title>Node1</title>
<polygon fill="#bfbfbf" stroke="black" points="403.396,-281.2 403.396,-298.8 520.604,-298.8 520.604,-281.2 403.396,-281.2"/>
<text text-anchor="middle" x="462" y="-286.8" font-family="Helvetica,sans-Serif" font-size="8.00">mtcore&#45;ios/MTCoreFactory.h</text>
</g>
<!-- Node2 -->
<g id="node3" class="node"><title>Node2</title>
<polygon fill="white" stroke="#bfbfbf" points="227.521,-1.2 227.521,-18.8 332.479,-18.8 332.479,-1.2 227.521,-1.2"/>
<text text-anchor="middle" x="280" y="-6.8" font-family="Helvetica,sans-Serif" font-size="8.00">Foundation/Foundation.h</text>
</g>
<!-- Node1&#45;&gt;Node2 -->
<g id="edge2" class="edge"><title>Node1&#45;&gt;Node2</title>
<path fill="none" stroke="midnightblue" d="M403.018,-287.25C278.469,-281.949 0,-260.935 0,-179 0,-179 0,-179 0,-121 0,-72.9804 144.468,-37.1906 225.861,-20.8373"/>
<polygon fill="midnightblue" stroke="midnightblue" points="226.81,-24.2176 235.942,-18.8462 225.453,-17.3503 226.81,-24.2176"/>
</g>
<!-- Node3 -->
<g id="node5" class="node"><title>Node3</title>
<a xlink:href="_m_t_app_core_8h.html" target="_top" xlink:title="This file contains the definition of the protocol MTAppCore.">
<polygon fill="white" stroke="black" points="359.615,-225.2 359.615,-242.8 464.385,-242.8 464.385,-225.2 359.615,-225.2"/>
<text text-anchor="middle" x="412" y="-230.8" font-family="Helvetica,sans-Serif" font-size="8.00">mtcore&#45;ios/MTAppCore.h</text>
</a>
</g>
<!-- Node1&#45;&gt;Node3 -->
<g id="edge4" class="edge"><title>Node1&#45;&gt;Node3</title>
<path fill="none" stroke="midnightblue" d="M454.622,-281.032C447.237,-273.056 435.677,-260.571 426.458,-250.615"/>
<polygon fill="midnightblue" stroke="midnightblue" points="428.77,-247.96 419.408,-243.001 423.634,-252.716 428.77,-247.96"/>
</g>
<!-- Node11 -->
<g id="node31" class="node"><title>Node11</title>
<a xlink:href="_m_t_serial_activation_8h.html" target="_top" xlink:title="This file contains the definition of the protocol MTSerialActivation.">
<polygon fill="white" stroke="black" points="477.539,-169.2 477.539,-186.8 606.461,-186.8 606.461,-169.2 477.539,-169.2"/>
<text text-anchor="middle" x="542" y="-174.8" font-family="Helvetica,sans-Serif" font-size="8.00">mtcore&#45;ios/MTSerialActivation.h</text>
</a>
</g>
<!-- Node1&#45;&gt;Node11 -->
<g id="edge44" class="edge"><title>Node1&#45;&gt;Node11</title>
<path fill="none" stroke="midnightblue" d="M467.753,-281.089C480.784,-263.172 512.77,-219.191 530.204,-195.22"/>
<polygon fill="midnightblue" stroke="midnightblue" points="533.248,-196.985 536.299,-186.839 527.586,-192.868 533.248,-196.985"/>
</g>
<!-- Node12 -->
<g id="node35" class="node"><title>Node12</title>
<a xlink:href="_m_t_transaction_signing_8h.html" target="_top" xlink:title="This file contains the definition of the protocol MTTransactionSigning.">
<polygon fill="white" stroke="black" points="579.012,-225.2 579.012,-242.8 720.988,-242.8 720.988,-225.2 579.012,-225.2"/>
<text text-anchor="middle" x="650" y="-230.8" font-family="Helvetica,sans-Serif" font-size="8.00">mtcore&#45;ios/MTTransactionSigning.h</text>
</a>
</g>
<!-- Node1&#45;&gt;Node12 -->
<g id="edge46" class="edge"><title>Node1&#45;&gt;Node12</title>
<path fill="none" stroke="midnightblue" d="M489.337,-281.148C521.917,-271.79 576.51,-256.109 612.887,-245.66"/>
<polygon fill="midnightblue" stroke="midnightblue" points="613.985,-248.986 622.63,-242.862 612.053,-242.258 613.985,-248.986"/>
</g>
<!-- Node3&#45;&gt;Node2 -->
<g id="edge6" class="edge"><title>Node3&#45;&gt;Node2</title>
<path fill="none" stroke="midnightblue" d="M359.38,-229.478C288.42,-223.917 166.599,-211.265 129,-188 102.991,-171.906 98.3342,-161.127 89,-132 81.555,-108.768 102.335,-56.6677 103,-56 119.088,-39.848 172.95,-27.6431 217.073,-20.0473"/>
<polygon fill="midnightblue" stroke="midnightblue" points="217.898,-23.458 227.184,-18.3565 216.744,-16.5539 217.898,-23.458"/>
</g>
<!-- Node4 -->
<g id="node8" class="node"><title>Node4</title>
<a xlink:href="_m_t_account_list_8h.html" target="_top" xlink:title="This file contains the definition of the protocol MTAccountList.">
<polygon fill="white" stroke="black" points="137.725,-169.2 137.725,-186.8 252.275,-186.8 252.275,-169.2 137.725,-169.2"/>
<text text-anchor="middle" x="195" y="-174.8" font-family="Helvetica,sans-Serif" font-size="8.00">mtcore&#45;ios/MTAccountList.h</text>
</a>
</g>
<!-- Node3&#45;&gt;Node4 -->
<g id="edge8" class="edge"><title>Node3&#45;&gt;Node4</title>
<path fill="none" stroke="midnightblue" d="M380.446,-225.148C342.438,-215.69 278.476,-199.773 236.5,-189.327"/>
<polygon fill="midnightblue" stroke="midnightblue" points="237.141,-185.88 226.592,-186.862 235.451,-192.673 237.141,-185.88"/>
</g>
<!-- Node7 -->
<g id="node18" class="node"><title>Node7</title>
<a xlink:href="_m_t_enterprise_list_8h.html" target="_top" xlink:title="This file contains the definition of the protocol MTEnterpriseList.">
<polygon fill="white" stroke="black" points="261.652,-113.2 261.652,-130.8 384.348,-130.8 384.348,-113.2 261.652,-113.2"/>
<text text-anchor="middle" x="323" y="-118.8" font-family="Helvetica,sans-Serif" font-size="8.00">mtcore&#45;ios/MTEnterpriseList.h</text>
</a>
</g>
<!-- Node3&#45;&gt;Node7 -->
<g id="edge22" class="edge"><title>Node3&#45;&gt;Node7</title>
<path fill="none" stroke="midnightblue" d="M405.599,-225.089C391.038,-207.092 355.203,-162.802 335.867,-138.903"/>
<polygon fill="midnightblue" stroke="midnightblue" points="338.354,-136.412 329.343,-130.839 332.912,-140.815 338.354,-136.412"/>
</g>
<!-- Node8 -->
<g id="node22" class="node"><title>Node8</title>
<a xlink:href="_m_t_token_8h.html" target="_top" xlink:title="This file contains the definition of the protocol MTToken.">
<polygon fill="white" stroke="black" points="308.434,-57.2 308.434,-74.8 403.566,-74.8 403.566,-57.2 308.434,-57.2"/>
<text text-anchor="middle" x="356" y="-62.8" font-family="Helvetica,sans-Serif" font-size="8.00">mtcore&#45;ios/MTToken.h</text>
</a>
</g>
<!-- Node3&#45;&gt;Node8 -->
<g id="edge28" class="edge"><title>Node3&#45;&gt;Node8</title>
<path fill="none" stroke="midnightblue" d="M412.166,-224.949C412.282,-204.913 410.766,-151.575 393,-112 388.029,-100.927 379.589,-90.3477 372.024,-82.2317"/>
<polygon fill="midnightblue" stroke="midnightblue" points="374.422,-79.6788 364.911,-75.01 369.434,-84.5907 374.422,-79.6788"/>
</g>
<!-- Node9 -->
<g id="node25" class="node"><title>Node9</title>
<a xlink:href="_m_t_deployer_8h.html" target="_top" xlink:title="This file contains the definition of the protocol MTDeployer.">
<polygon fill="white" stroke="black" points="440.318,-113.2 440.318,-130.8 545.682,-130.8 545.682,-113.2 440.318,-113.2"/>
<text text-anchor="middle" x="493" y="-118.8" font-family="Helvetica,sans-Serif" font-size="8.00">mtcore&#45;ios/MTDeployer.h</text>
</a>
</g>
<!-- Node3&#45;&gt;Node9 -->
<g id="edge32" class="edge"><title>Node3&#45;&gt;Node9</title>
<path fill="none" stroke="midnightblue" d="M417.825,-225.089C431.077,-207.092 463.691,-162.802 481.29,-138.903"/>
<polygon fill="midnightblue" stroke="midnightblue" points="484.116,-140.967 487.227,-130.839 478.48,-136.816 484.116,-140.967"/>
</g>
<!-- Node3&#45;&gt;Node11 -->
<g id="edge40" class="edge"><title>Node3&#45;&gt;Node11</title>
<path fill="none" stroke="midnightblue" d="M430.903,-225.148C452.662,-216.11 488.619,-201.174 513.714,-190.75"/>
<polygon fill="midnightblue" stroke="midnightblue" points="515.182,-193.93 523.074,-186.862 512.496,-187.465 515.182,-193.93"/>
</g>
<!-- Node4&#45;&gt;Node2 -->
<g id="edge10" class="edge"><title>Node4&#45;&gt;Node2</title>
<path fill="none" stroke="midnightblue" d="M152.624,-169.182C131.488,-162.911 107.766,-151.744 95,-132 90.1736,-124.536 92.8361,-120.621 95,-112 101.873,-84.614 103.059,-73.7711 125,-56 151.117,-34.847 186.785,-23.6372 217.322,-17.6968"/>
<polygon fill="midnightblue" stroke="midnightblue" points="218.236,-21.0888 227.461,-15.8774 217,-14.1989 218.236,-21.0888"/>
</g>
<!-- Node5 -->
<g id="node11" class="node"><title>Node5</title>
<a xlink:href="_m_t_account_8h.html" target="_top" xlink:title="This file contains the definition of the protocol MTAccount.">
<polygon fill="white" stroke="black" points="103.949,-113.2 103.949,-130.8 206.051,-130.8 206.051,-113.2 103.949,-113.2"/>
<text text-anchor="middle" x="155" y="-118.8" font-family="Helvetica,sans-Serif" font-size="8.00">mtcore&#45;ios/MTAccount.h</text>
</a>
</g>
<!-- Node4&#45;&gt;Node5 -->
<g id="edge12" class="edge"><title>Node4&#45;&gt;Node5</title>
<path fill="none" stroke="midnightblue" d="M189.098,-169.032C183.308,-161.215 174.31,-149.069 167.011,-139.215"/>
<polygon fill="midnightblue" stroke="midnightblue" points="169.691,-136.953 160.926,-131.001 164.066,-141.119 169.691,-136.953"/>
</g>
<!-- Node6 -->
<g id="node14" class="node"><title>Node6</title>
<a xlink:href="_m_t_enterprise_8h.html" target="_top" xlink:title="This file contains the definition of the protocol MTEnterprise.">
<polygon fill="white" stroke="black" points="141.877,-57.2 141.877,-74.8 252.123,-74.8 252.123,-57.2 141.877,-57.2"/>
<text text-anchor="middle" x="197" y="-62.8" font-family="Helvetica,sans-Serif" font-size="8.00">mtcore&#45;ios/MTEnterprise.h</text>
</a>
</g>
<!-- Node4&#45;&gt;Node6 -->
<g id="edge20" class="edge"><title>Node4&#45;&gt;Node6</title>
<path fill="none" stroke="midnightblue" d="M199.765,-169.056C204.7,-160.326 212.089,-145.716 215,-132 218.491,-115.55 212.401,-97.1015 206.38,-84.0729"/>
<polygon fill="midnightblue" stroke="midnightblue" points="209.39,-82.2695 201.752,-74.928 203.145,-85.4308 209.39,-82.2695"/>
</g>
<!-- Node5&#45;&gt;Node2 -->
<g id="edge14" class="edge"><title>Node5&#45;&gt;Node2</title>
<path fill="none" stroke="midnightblue" d="M148.009,-113.074C137.407,-100.056 119.822,-73.8152 133,-56 152.322,-29.8778 186.51,-18.4237 217.055,-13.5944"/>
<polygon fill="midnightblue" stroke="midnightblue" points="217.815,-17.0231 227.248,-12.1989 216.865,-10.0878 217.815,-17.0231"/>
</g>
<!-- Node5&#45;&gt;Node6 -->
<g id="edge16" class="edge"><title>Node5&#45;&gt;Node6</title>
<path fill="none" stroke="midnightblue" d="M161.197,-113.032C167.339,-105.136 176.918,-92.8202 184.622,-82.9141"/>
<polygon fill="midnightblue" stroke="midnightblue" points="187.401,-85.0429 190.777,-75.0006 181.875,-80.7453 187.401,-85.0429"/>
</g>
<!-- Node6&#45;&gt;Node2 -->
<g id="edge18" class="edge"><title>Node6&#45;&gt;Node2</title>
<path fill="none" stroke="midnightblue" d="M209.247,-57.0321C222.44,-48.4485 243.659,-34.6434 259.423,-24.3872"/>
<polygon fill="midnightblue" stroke="midnightblue" points="261.499,-27.2122 267.973,-18.825 257.682,-21.3447 261.499,-27.2122"/>
</g>
<!-- Node7&#45;&gt;Node2 -->
<g id="edge24" class="edge"><title>Node7&#45;&gt;Node2</title>
<path fill="none" stroke="midnightblue" d="M318.053,-112.952C312.79,-104.132 304.483,-89.446 299,-76 292.688,-60.5205 287.526,-42.1843 284.184,-28.94"/>
<polygon fill="midnightblue" stroke="midnightblue" points="287.578,-28.0807 281.82,-19.187 280.775,-29.7301 287.578,-28.0807"/>
</g>
<!-- Node7&#45;&gt;Node6 -->
<g id="edge26" class="edge"><title>Node7&#45;&gt;Node6</title>
<path fill="none" stroke="midnightblue" d="M304.679,-113.148C283.683,-104.15 249.046,-89.3056 224.739,-78.8884"/>
<polygon fill="midnightblue" stroke="midnightblue" points="225.914,-75.5838 215.344,-74.8615 223.156,-82.0178 225.914,-75.5838"/>
</g>
<!-- Node8&#45;&gt;Node2 -->
<g id="edge30" class="edge"><title>Node8&#45;&gt;Node2</title>
<path fill="none" stroke="midnightblue" d="M344.786,-57.0321C332.818,-48.5287 313.638,-34.9009 299.247,-24.6757"/>
<polygon fill="midnightblue" stroke="midnightblue" points="301.192,-21.764 291.013,-18.825 297.138,-27.4703 301.192,-21.764"/>
</g>
<!-- Node9&#45;&gt;Node2 -->
<g id="edge34" class="edge"><title>Node9&#45;&gt;Node2</title>
<path fill="none" stroke="midnightblue" d="M485.179,-113.133C471.467,-99.7263 441.709,-72.3226 412,-56 383.87,-40.5447 349.478,-29.0292 322.851,-21.5175"/>
<polygon fill="midnightblue" stroke="midnightblue" points="323.626,-18.1007 313.056,-18.8347 321.777,-24.8521 323.626,-18.1007"/>
</g>
<!-- Node10 -->
<g id="node28" class="node"><title>Node10</title>
<a xlink:href="_m_t_deployment_listener_8h.html" target="_top" xlink:title="This file contains the definition of the protocol MTDeploymentListener.">
<polygon fill="white" stroke="black" points="459.752,-57.2 459.752,-74.8 604.248,-74.8 604.248,-57.2 459.752,-57.2"/>
<text text-anchor="middle" x="532" y="-62.8" font-family="Helvetica,sans-Serif" font-size="8.00">mtcore&#45;ios/MTDeploymentListener.h</text>
</a>
</g>
<!-- Node9&#45;&gt;Node10 -->
<g id="edge36" class="edge"><title>Node9&#45;&gt;Node10</title>
<path fill="none" stroke="midnightblue" d="M498.755,-113.032C504.4,-105.215 513.173,-93.0685 520.289,-83.215"/>
<polygon fill="midnightblue" stroke="midnightblue" points="523.204,-85.1566 526.222,-75.0006 517.529,-81.0582 523.204,-85.1566"/>
</g>
<!-- Node10&#45;&gt;Node2 -->
<g id="edge38" class="edge"><title>Node10&#45;&gt;Node2</title>
<path fill="none" stroke="midnightblue" d="M495.357,-57.1479C450.752,-47.5898 375.367,-31.4357 326.656,-20.9977"/>
<polygon fill="midnightblue" stroke="midnightblue" points="327.199,-17.5346 316.687,-18.8615 325.732,-24.3792 327.199,-17.5346"/>
</g>
<!-- Node11&#45;&gt;Node2 -->
<g id="edge42" class="edge"><title>Node11&#45;&gt;Node2</title>
<path fill="none" stroke="midnightblue" d="M553.243,-168.983C580.563,-148.571 645.857,-93.596 613,-56 578.646,-16.6913 429.567,-10.351 342.968,-10.0942"/>
<polygon fill="midnightblue" stroke="midnightblue" points="342.729,-6.59426 332.728,-10.0913 342.727,-13.5943 342.729,-6.59426"/>
</g>
<!-- Node12&#45;&gt;Node2 -->
<g id="edge48" class="edge"><title>Node12&#45;&gt;Node2</title>
<path fill="none" stroke="midnightblue" d="M652.229,-224.886C659.366,-196.94 678.564,-103.781 632,-56 593.082,-16.0642 433.195,-10.1064 342.88,-10.0422"/>
<polygon fill="midnightblue" stroke="midnightblue" points="342.752,-6.54231 332.758,-10.0594 342.764,-13.5423 342.752,-6.54231"/>
</g>
</g>
</svg>
        <g id="navigator" transform="translate(0 0)" fill="#404254">
                <rect fill="#f2f5e9" fill-opacity="0.5" stroke="#606060" stroke-width=".5" x="0" y="0" width="60" height="60"/>
                <use id="zoomplus" xlink:href="#zoomPlus" x="17" y="9" onmousedown="handleZoom(evt,'in')"/>
                <use id="zoomminus" xlink:href="#zoomMin" x="42" y="9" onmousedown="handleZoom(evt,'out')"/>
                <use id="reset" xlink:href="#resetDef" x="30" y="36" onmousedown="handleReset()"/>
                <g id="arrowUp" xlink:href="#dirArrow" transform="translate(30 24)" onmousedown="handlePan(0,-1)">
                  <use xlink:href="#rim" fill="#404040">
                        <set attributeName="fill" to="#808080" begin="arrowUp.mouseover" end="arrowUp.mouseout"/>
                  </use>
                  <path fill="none" stroke="white" stroke-width="1.5" d="M0,-3.0v7 M-2.5,-0.5L0,-3.0L2.5,-0.5"/>
                </g>
                <g id="arrowRight" xlink:href="#dirArrow" transform="rotate(90) translate(36 -43)" onmousedown="handlePan(1,0)">
                  <use xlink:href="#rim" fill="#404040">
                        <set attributeName="fill" to="#808080" begin="arrowRight.mouseover" end="arrowRight.mouseout"/>
                  </use>
                  <path fill="none" stroke="white" stroke-width="1.5" d="M0,-3.0v7 M-2.5,-0.5L0,-3.0L2.5,-0.5"/>
                </g>
                <g id="arrowDown" xlink:href="#dirArrow" transform="rotate(180) translate(-30 -48)" onmousedown="handlePan(0,1)">
                  <use xlink:href="#rim" fill="#404040">
                        <set attributeName="fill" to="#808080" begin="arrowDown.mouseover" end="arrowDown.mouseout"/>
                  </use>
                  <path fill="none" stroke="white" stroke-width="1.5" d="M0,-3.0v7 M-2.5,-0.5L0,-3.0L2.5,-0.5"/>
                </g>
                <g id="arrowLeft" xlink:href="#dirArrow" transform="rotate(270) translate(-36 17)" onmousedown="handlePan(-1,0)">
                  <use xlink:href="#rim" fill="#404040">
                        <set attributeName="fill" to="#808080" begin="arrowLeft.mouseover" end="arrowLeft.mouseout"/>
                  </use>
                  <path fill="none" stroke="white" stroke-width="1.5" d="M0,-3.0v7 M-2.5,-0.5L0,-3.0L2.5,-0.5"/>
                </g>
        </g>
</svg>
