<?xml version="1.0" encoding="UTF-8" standalone="no"?>
<!DOCTYPE svg PUBLIC "-//W3C//DTD SVG 1.1//EN"
 "http://www.w3.org/Graphics/SVG/1.1/DTD/svg11.dtd">
<!-- Generated by graphviz version 2.28.0 (20111028.1807)
 -->
<!-- Title: G Pages: 1 -->
<svg width="198pt" height="196pt"
 viewBox="0.00 0.00 198.00 196.00" xmlns="http://www.w3.org/2000/svg" xmlns:xlink="http://www.w3.org/1999/xlink">
<g id="graph1" class="graph" transform="scale(1 1) rotate(0) translate(4 192)">
<title>G</title>
<polygon fill="white" stroke="white" points="-4,5 -4,-192 195,-192 195,5 -4,5"/>
<!-- Node1 -->
<g id="node1" class="node"><title>Node1</title>
<polygon fill="#bfbfbf" stroke="black" points="17.7246,-169.2 17.7246,-186.8 132.275,-186.8 132.275,-169.2 17.7246,-169.2"/>
<text text-anchor="middle" x="75" y="-174.8" font-family="Helvetica,sans-Serif" font-size="8.00">mtcore&#45;ios/MTAccountList.h</text>
</g>
<!-- Node2 -->
<g id="node3" class="node"><title>Node2</title>
<polygon fill="white" stroke="#bfbfbf" points="-0.478516,-1.2 -0.478516,-18.8 104.479,-18.8 104.479,-1.2 -0.478516,-1.2"/>
<text text-anchor="middle" x="52" y="-6.8" font-family="Helvetica,sans-Serif" font-size="8.00">Foundation/Foundation.h</text>
</g>
<!-- Node1&#45;&gt;Node2 -->
<g id="edge2" class="edge"><title>Node1&#45;&gt;Node2</title>
<path fill="none" stroke="midnightblue" d="M56.8638,-169.082C42.5786,-161.75 23.6764,-149.353 15,-132 -2.6924,-96.6152 22.8194,-51.1333 39.5038,-27.2727"/>
<polygon fill="midnightblue" stroke="midnightblue" points="42.4841,-29.1264 45.5597,-18.9878 36.8329,-24.9956 42.4841,-29.1264"/>
</g>
<!-- Node3 -->
<g id="node5" class="node"><title>Node3</title>
<a xlink:href="_m_t_account_8h.html" target="_top" xlink:title="This file contains the definition of the protocol MTAccount.">
<polygon fill="white" stroke="black" points="23.9492,-113.2 23.9492,-130.8 126.051,-130.8 126.051,-113.2 23.9492,-113.2"/>
<text text-anchor="middle" x="75" y="-118.8" font-family="Helvetica,sans-Serif" font-size="8.00">mtcore&#45;ios/MTAccount.h</text>
</a>
</g>
<!-- Node1&#45;&gt;Node3 -->
<g id="edge4" class="edge"><title>Node1&#45;&gt;Node3</title>
<path fill="none" stroke="midnightblue" d="M75,-169.032C75,-161.694 75,-150.54 75,-141.049"/>
<polygon fill="midnightblue" stroke="midnightblue" points="78.5001,-141.001 75,-131.001 71.5001,-141.001 78.5001,-141.001"/>
</g>
<!-- Node4 -->
<g id="node8" class="node"><title>Node4</title>
<a xlink:href="_m_t_enterprise_8h.html" target="_top" xlink:title="This file contains the definition of the protocol MTEnterprise.">
<polygon fill="white" stroke="black" points="79.877,-57.2 79.877,-74.8 190.123,-74.8 190.123,-57.2 79.877,-57.2"/>
<text text-anchor="middle" x="135" y="-62.8" font-family="Helvetica,sans-Serif" font-size="8.00">mtcore&#45;ios/MTEnterprise.h</text>
</a>
</g>
<!-- Node1&#45;&gt;Node4 -->
<g id="edge12" class="edge"><title>Node1&#45;&gt;Node4</title>
<path fill="none" stroke="midnightblue" d="M93.1362,-169.082C107.421,-161.75 126.324,-149.353 135,-132 142.255,-117.491 141.362,-98.781 139.184,-85.163"/>
<polygon fill="midnightblue" stroke="midnightblue" points="142.573,-84.2587 137.204,-75.1255 135.706,-85.6139 142.573,-84.2587"/>
</g>
<!-- Node3&#45;&gt;Node2 -->
<g id="edge6" class="edge"><title>Node3&#45;&gt;Node2</title>
<path fill="none" stroke="midnightblue" d="M73.3459,-113.089C69.6824,-95.5681 60.8079,-53.1248 55.7302,-28.8399"/>
<polygon fill="midnightblue" stroke="midnightblue" points="59.1118,-27.9112 53.6391,-18.8392 52.2599,-29.3439 59.1118,-27.9112"/>
</g>
<!-- Node3&#45;&gt;Node4 -->
<g id="edge8" class="edge"><title>Node3&#45;&gt;Node4</title>
<path fill="none" stroke="midnightblue" d="M83.8532,-113.032C92.9816,-104.817 107.425,-91.8178 118.638,-81.7256"/>
<polygon fill="midnightblue" stroke="midnightblue" points="121.019,-84.2918 126.11,-75.0006 116.336,-79.0887 121.019,-84.2918"/>
</g>
<!-- Node4&#45;&gt;Node2 -->
<g id="edge10" class="edge"><title>Node4&#45;&gt;Node2</title>
<path fill="none" stroke="midnightblue" d="M122.753,-57.0321C109.56,-48.4485 88.3407,-34.6434 72.5767,-24.3872"/>
<polygon fill="midnightblue" stroke="midnightblue" points="74.3182,-21.3447 64.0273,-18.825 70.5008,-27.2122 74.3182,-21.3447"/>
</g>
</g>
</svg>
