<?xml version="1.0" encoding="UTF-8" standalone="no"?>
<!DOCTYPE svg PUBLIC "-//W3C//DTD SVG 1.1//EN"
 "http://www.w3.org/Graphics/SVG/1.1/DTD/svg11.dtd">
<!-- Generated by graphviz version 2.28.0 (20111028.1807)
 -->
<!-- Title: G Pages: 1 -->
<svg width="164pt" height="140pt"
 viewBox="0.00 0.00 164.00 140.00" xmlns="http://www.w3.org/2000/svg" xmlns:xlink="http://www.w3.org/1999/xlink">
<g id="graph1" class="graph" transform="scale(1 1) rotate(0) translate(4 136)">
<title>G</title>
<polygon fill="white" stroke="white" points="-4,5 -4,-136 161,-136 161,5 -4,5"/>
<!-- Node1 -->
<g id="node1" class="node"><title>Node1</title>
<polygon fill="#bfbfbf" stroke="black" points="27.5391,-113.2 27.5391,-130.8 156.461,-130.8 156.461,-113.2 27.5391,-113.2"/>
<text text-anchor="middle" x="92" y="-118.8" font-family="Helvetica,sans-Serif" font-size="8.00">mtcore&#45;ios/MTSerialActivation.h</text>
</g>
<!-- Node2 -->
<g id="node3" class="node"><title>Node2</title>
<a xlink:href="_m_t_app_core_8h.html" target="_top" xlink:title="This file contains the definition of the protocol MTAppCore.">
<polygon fill="white" stroke="black" points="-0.384766,-57.2 -0.384766,-74.8 104.385,-74.8 104.385,-57.2 -0.384766,-57.2"/>
<text text-anchor="middle" x="52" y="-62.8" font-family="Helvetica,sans-Serif" font-size="8.00">mtcore&#45;ios/MTAppCore.h</text>
</a>
</g>
<!-- Node1&#45;&gt;Node2 -->
<g id="edge2" class="edge"><title>Node1&#45;&gt;Node2</title>
<path fill="none" stroke="midnightblue" d="M80.0194,-104.826C72.7252,-94.979 63.7254,-82.8293 57.9264,-75.0006"/>
<polygon fill="midnightblue" stroke="midnightblue" points="77.3331,-107.08 86.0979,-113.032 82.958,-102.913 77.3331,-107.08"/>
</g>
<!-- Node3 -->
<g id="node5" class="node"><title>Node3</title>
<a xlink:href="_m_t_core_factory_8h.html" target="_top" xlink:title="This file contains the definition of the class MTCoreFactory.">
<polygon fill="white" stroke="black" points="33.3965,-1.2 33.3965,-18.8 150.604,-18.8 150.604,-1.2 33.3965,-1.2"/>
<text text-anchor="middle" x="92" y="-6.8" font-family="Helvetica,sans-Serif" font-size="8.00">mtcore&#45;ios/MTCoreFactory.h</text>
</a>
</g>
<!-- Node1&#45;&gt;Node3 -->
<g id="edge6" class="edge"><title>Node1&#45;&gt;Node3</title>
<path fill="none" stroke="midnightblue" d="M101.963,-104.231C106.273,-96.0221 110.823,-85.8133 113,-76 117.675,-54.9288 105.088,-30.9651 97.4215,-18.8718"/>
<polygon fill="midnightblue" stroke="midnightblue" points="98.8339,-102.655 97.0006,-113.09 104.941,-106.076 98.8339,-102.655"/>
</g>
<!-- Node2&#45;&gt;Node3 -->
<g id="edge4" class="edge"><title>Node2&#45;&gt;Node3</title>
<path fill="none" stroke="midnightblue" d="M63.9806,-48.8262C71.2748,-38.979 80.2746,-26.8293 86.0736,-19.0006"/>
<polygon fill="midnightblue" stroke="midnightblue" points="61.042,-46.9132 57.9021,-57.0321 66.6669,-51.0798 61.042,-46.9132"/>
</g>
</g>
</svg>
