<?xml version="1.0" encoding="UTF-8" standalone="no"?>
<!DOCTYPE svg PUBLIC "-//W3C//DTD SVG 1.1//EN"
 "http://www.w3.org/Graphics/SVG/1.1/DTD/svg11.dtd">
<!-- Generated by graphviz version 2.28.0 (20111028.1807)
 -->
<!-- Title: G Pages: 1 -->
<svg width="152pt" height="196pt"
 viewBox="0.00 0.00 152.00 196.00" xmlns="http://www.w3.org/2000/svg" xmlns:xlink="http://www.w3.org/1999/xlink">
<g id="graph1" class="graph" transform="scale(1 1) rotate(0) translate(4 192)">
<title>G</title>
<polygon fill="white" stroke="white" points="-4,5 -4,-192 149,-192 149,5 -4,5"/>
<!-- Node1 -->
<g id="node1" class="node"><title>Node1</title>
<polygon fill="#bfbfbf" stroke="black" points="-0.248047,-169.2 -0.248047,-186.8 144.248,-186.8 144.248,-169.2 -0.248047,-169.2"/>
<text text-anchor="middle" x="72" y="-174.8" font-family="Helvetica,sans-Serif" font-size="8.00">mtcore&#45;ios/MTDeploymentListener.h</text>
</g>
<!-- Node2 -->
<g id="node3" class="node"><title>Node2</title>
<a xlink:href="_m_t_deployer_8h.html" target="_top" xlink:title="This file contains the definition of the protocol MTDeployer.">
<polygon fill="white" stroke="black" points="19.3184,-113.2 19.3184,-130.8 124.682,-130.8 124.682,-113.2 19.3184,-113.2"/>
<text text-anchor="middle" x="72" y="-118.8" font-family="Helvetica,sans-Serif" font-size="8.00">mtcore&#45;ios/MTDeployer.h</text>
</a>
</g>
<!-- Node1&#45;&gt;Node2 -->
<g id="edge2" class="edge"><title>Node1&#45;&gt;Node2</title>
<path fill="none" stroke="midnightblue" d="M72,-158.993C72,-149.508 72,-138.35 72,-131.001"/>
<polygon fill="midnightblue" stroke="midnightblue" points="68.5001,-159.032 72,-169.032 75.5001,-159.032 68.5001,-159.032"/>
</g>
<!-- Node3 -->
<g id="node5" class="node"><title>Node3</title>
<a xlink:href="_m_t_app_core_8h.html" target="_top" xlink:title="This file contains the definition of the protocol MTAppCore.">
<polygon fill="white" stroke="black" points="19.6152,-57.2 19.6152,-74.8 124.385,-74.8 124.385,-57.2 19.6152,-57.2"/>
<text text-anchor="middle" x="72" y="-62.8" font-family="Helvetica,sans-Serif" font-size="8.00">mtcore&#45;ios/MTAppCore.h</text>
</a>
</g>
<!-- Node2&#45;&gt;Node3 -->
<g id="edge4" class="edge"><title>Node2&#45;&gt;Node3</title>
<path fill="none" stroke="midnightblue" d="M72,-102.993C72,-93.5075 72,-82.35 72,-75.0006"/>
<polygon fill="midnightblue" stroke="midnightblue" points="68.5001,-103.032 72,-113.032 75.5001,-103.032 68.5001,-103.032"/>
</g>
<!-- Node4 -->
<g id="node7" class="node"><title>Node4</title>
<a xlink:href="_m_t_core_factory_8h.html" target="_top" xlink:title="This file contains the definition of the class MTCoreFactory.">
<polygon fill="white" stroke="black" points="13.3965,-1.2 13.3965,-18.8 130.604,-18.8 130.604,-1.2 13.3965,-1.2"/>
<text text-anchor="middle" x="72" y="-6.8" font-family="Helvetica,sans-Serif" font-size="8.00">mtcore&#45;ios/MTCoreFactory.h</text>
</a>
</g>
<!-- Node3&#45;&gt;Node4 -->
<g id="edge6" class="edge"><title>Node3&#45;&gt;Node4</title>
<path fill="none" stroke="midnightblue" d="M72,-46.9931C72,-37.5075 72,-26.35 72,-19.0006"/>
<polygon fill="midnightblue" stroke="midnightblue" points="68.5001,-47.0321 72,-57.0321 75.5001,-47.0321 68.5001,-47.0321"/>
</g>
</g>
</svg>
