<?xml version="1.0" encoding="UTF-8" standalone="no"?>
<!DOCTYPE svg PUBLIC "-//W3C//DTD SVG 1.1//EN"
 "http://www.w3.org/Graphics/SVG/1.1/DTD/svg11.dtd">
<!-- Generated by graphviz version 2.28.0 (20111028.1807)
 -->
<!-- Title: G Pages: 1 -->
<svg width="446pt" height="154pt"
 viewBox="0.00 0.00 446.00 154.00" xmlns="http://www.w3.org/2000/svg" xmlns:xlink="http://www.w3.org/1999/xlink">
<g id="graph1" class="graph" transform="scale(1 1) rotate(0) translate(4 150)">
<title>G</title>
<polygon fill="white" stroke="white" points="-4,5 -4,-150 443,-150 443,5 -4,5"/>
<!-- Node9 -->
<g id="node1" class="node"><title>Node9</title>
<polygon fill="#bfbfbf" stroke="black" points="254.349,-17.6044 207.651,-17.6044 207.651,-0.395556 254.349,-0.395556 254.349,-17.6044"/>
<text text-anchor="middle" x="231" y="-5.8" font-family="Helvetica,sans-Serif" font-size="8.00">Inherited</text>
</g>
<!-- Node10 -->
<g id="node2" class="node"><title>Node10</title>
<a xlink:href="$classPublicBase.html" xlink:title="PublicBase">
<polygon fill="none" stroke="black" points="56.0176,-81.6044 -0.0175806,-81.6044 -0.0175806,-64.3956 56.0176,-64.3956 56.0176,-81.6044"/>
<text text-anchor="middle" x="28" y="-69.8" font-family="Helvetica,sans-Serif" font-size="8.00">PublicBase</text>
</a>
</g>
<!-- Node10&#45;&gt;Node9 -->
<g id="edge2" class="edge"><title>Node10&#45;&gt;Node9</title>
<path fill="none" stroke="midnightblue" d="M62.9623,-61.3219C104.332,-48.6867 172.066,-27.9996 207.586,-17.1512"/>
<polygon fill="midnightblue" stroke="midnightblue" points="61.8412,-58.0046 53.2996,-64.273 63.8859,-64.6993 61.8412,-58.0046"/>
</g>
<!-- Node11 -->
<g id="node4" class="node"><title>Node11</title>
<a xlink:href="$classTruncated.html" xlink:title="Truncated">
<polygon fill="none" stroke="red" points="53.2979,-145.604 2.70209,-145.604 2.70209,-128.396 53.2979,-128.396 53.2979,-145.604"/>
<text text-anchor="middle" x="28" y="-133.8" font-family="Helvetica,sans-Serif" font-size="8.00">Truncated</text>
</a>
</g>
<!-- Node11&#45;&gt;Node10 -->
<g id="edge4" class="edge"><title>Node11&#45;&gt;Node10</title>
<path fill="none" stroke="midnightblue" d="M28,-117.979C28,-106.066 28,-91.0314 28,-81.9844"/>
<polygon fill="midnightblue" stroke="midnightblue" points="24.5001,-118.148 28,-128.148 31.5001,-118.148 24.5001,-118.148"/>
</g>
<!-- Node13 -->
<g id="node6" class="node"><title>Node13</title>
<a xlink:href="$classProtectedBase.html" xlink:title="ProtectedBase">
<polygon fill="none" stroke="black" points="142.358,-81.6044 73.6417,-81.6044 73.6417,-64.3956 142.358,-64.3956 142.358,-81.6044"/>
<text text-anchor="middle" x="108" y="-69.8" font-family="Helvetica,sans-Serif" font-size="8.00">ProtectedBase</text>
</a>
</g>
<!-- Node13&#45;&gt;Node9 -->
<g id="edge6" class="edge"><title>Node13&#45;&gt;Node9</title>
<path fill="none" stroke="darkgreen" d="M132.479,-59.6608C157.337,-47.1309 195.046,-28.1231 215.864,-17.6296"/>
<polygon fill="darkgreen" stroke="darkgreen" points="130.684,-56.6464 123.329,-64.273 133.834,-62.8972 130.684,-56.6464"/>
</g>
<!-- Node14 -->
<g id="node8" class="node"><title>Node14</title>
<a xlink:href="$classPrivateBase.html" xlink:title="PrivateBase">
<polygon fill="none" stroke="black" points="219.349,-81.6044 160.651,-81.6044 160.651,-64.3956 219.349,-64.3956 219.349,-81.6044"/>
<text text-anchor="middle" x="190" y="-69.8" font-family="Helvetica,sans-Serif" font-size="8.00">PrivateBase</text>
</a>
</g>
<!-- Node14&#45;&gt;Node9 -->
<g id="edge8" class="edge"><title>Node14&#45;&gt;Node9</title>
<path fill="none" stroke="#8b1a1a" d="M200.716,-55.7953C208.76,-43.6316 219.429,-27.4977 225.72,-17.9844"/>
<polygon fill="#8b1a1a" stroke="#8b1a1a" points="197.789,-53.8759 195.193,-64.1477 203.628,-57.7371 197.789,-53.8759"/>
</g>
<!-- Node15 -->
<g id="node10" class="node"><title>Node15</title>
<polygon fill="none" stroke="#bfbfbf" points="308.194,-81.6044 237.806,-81.6044 237.806,-64.3956 308.194,-64.3956 308.194,-81.6044"/>
<text text-anchor="middle" x="273" y="-69.8" font-family="Helvetica,sans-Serif" font-size="8.00">Undocumented</text>
</g>
<!-- Node15&#45;&gt;Node9 -->
<g id="edge10" class="edge"><title>Node15&#45;&gt;Node9</title>
<path fill="none" stroke="midnightblue" d="M262.023,-55.7953C253.783,-43.6316 242.853,-27.4977 236.409,-17.9844"/>
<polygon fill="midnightblue" stroke="midnightblue" points="259.174,-57.8314 267.681,-64.1477 264.97,-53.9055 259.174,-57.8314"/>
</g>
<!-- Node16 -->
<g id="node12" class="node"><title>Node16</title>
<a xlink:href="$classTempl.html" xlink:title="Templ&lt; int &gt;">
<polygon fill="none" stroke="black" points="385.188,-81.6044 326.812,-81.6044 326.812,-64.3956 385.188,-64.3956 385.188,-81.6044"/>
<text text-anchor="middle" x="356" y="-69.8" font-family="Helvetica,sans-Serif" font-size="8.00">Templ&lt; int &gt;</text>
</a>
</g>
<!-- Node16&#45;&gt;Node9 -->
<g id="edge12" class="edge"><title>Node16&#45;&gt;Node9</title>
<path fill="none" stroke="midnightblue" d="M331.457,-59.8267C306.2,-47.2993 267.632,-28.1695 246.382,-17.6296"/>
<polygon fill="midnightblue" stroke="midnightblue" points="329.908,-62.965 340.421,-64.273 333.018,-56.694 329.908,-62.965"/>
</g>
<!-- Node17 -->
<g id="node14" class="node"><title>Node17</title>
<a xlink:href="$classTempl.html" xlink:title="Templ&lt; T &gt;">
<polygon fill="none" stroke="black" points="383.303,-145.604 328.697,-145.604 328.697,-128.396 383.303,-128.396 383.303,-145.604"/>
<text text-anchor="middle" x="356" y="-133.8" font-family="Helvetica,sans-Serif" font-size="8.00">Templ&lt; T &gt;</text>
</a>
</g>
<!-- Node17&#45;&gt;Node16 -->
<g id="edge14" class="edge"><title>Node17&#45;&gt;Node16</title>
<path fill="none" stroke="orange" stroke-dasharray="5,2" d="M356,-117.979C356,-106.066 356,-91.0314 356,-81.9844"/>
<polygon fill="orange" stroke="orange" points="352.5,-118.148 356,-128.148 359.5,-118.148 352.5,-118.148"/>
<text text-anchor="middle" x="367.119" y="-101.8" font-family="Helvetica,sans-Serif" font-size="8.00">&lt; int &gt;</text>
</g>
<!-- Node18 -->
<g id="node16" class="node"><title>Node18</title>
<a xlink:href="$classUsed.html" xlink:title="Used">
<polygon fill="none" stroke="black" points="438.01,-81.6044 403.99,-81.6044 403.99,-64.3956 438.01,-64.3956 438.01,-81.6044"/>
<text text-anchor="middle" x="421" y="-69.8" font-family="Helvetica,sans-Serif" font-size="8.00">Used</text>
</a>
</g>
<!-- Node18&#45;&gt;Node9 -->
<g id="edge16" class="edge"><title>Node18&#45;&gt;Node9</title>
<path fill="none" stroke="#9a32cd" stroke-dasharray="5,2" d="M394.109,-63.2252C356.777,-51.043 289.853,-29.2047 254.448,-17.6515"/>
<polygon fill="#9a32cd" stroke="#9a32cd" points="393.211,-66.6137 403.804,-66.3886 395.383,-59.959 393.211,-66.6137"/>
<text text-anchor="middle" x="362.232" y="-37.8" font-family="Helvetica,sans-Serif" font-size="8.00">m_usedClass</text>
</g>
</g>
</svg>
